<svg width="80" height="80" viewBox="0 0 80 80" fill="none" xmlns="http://www.w3.org/2000/svg">
<g opacity="0.9127">
<rect x="1" y="1" width="77.98" height="77.98" rx="38.99" fill="black"/>
<rect x="1" y="1" width="77.98" height="77.98" rx="38.99" stroke="black" stroke-width="2"/>
<g clip-path="url(#clip0_28_28670)">
<g clip-path="url(#clip1_28_28670)">
<g clip-path="url(#clip2_28_28670)">
<path d="M53.1377 36.5669C53.6868 32.89 50.8917 30.9185 47.0651 29.5958L48.3046 24.613L45.2766 23.856L44.0704 28.7057C43.2718 28.5061 42.4566 28.3231 41.6413 28.1318L42.8558 23.2487L39.8279 22.4917L38.5884 27.4663C37.9312 27.3165 37.2823 27.1668 36.6501 27.0087V26.9921L32.4741 25.9523L31.6672 29.1882C31.6672 29.1882 33.9133 29.704 33.8717 29.7373C35.1028 30.0451 35.3191 30.8603 35.2859 31.5008L33.8717 37.1741C33.9549 37.1991 34.063 37.2241 34.1878 37.274C34.088 37.249 33.9798 37.2241 33.8634 37.1908L31.8835 45.1351C31.7338 45.5095 31.3511 46.0668 30.4943 45.8588C30.5276 45.9004 28.2899 45.3098 28.2899 45.3098L26.7842 48.7787L30.7272 49.7603C31.4593 49.9433 32.183 50.1346 32.8901 50.3176L31.634 55.3504L34.662 56.1074L35.9014 51.1246C36.725 51.3492 37.5319 51.5571 38.3139 51.7485L37.0744 56.7064L40.1024 57.4634L41.3585 52.4389C46.5244 53.4205 50.4175 53.0212 52.048 48.3461C53.3623 44.5861 51.9814 42.4149 49.2612 40.9924C51.2411 40.5349 52.7301 39.2289 53.1294 36.5419L53.1377 36.5669ZM46.2166 46.2748C45.2766 50.0348 38.9378 48.0051 36.883 47.4976L38.5468 40.826C40.6015 41.3418 47.1899 42.3567 46.2083 46.2831L46.2166 46.2748ZM47.1483 36.5087C46.2915 39.9359 41.0174 38.189 39.3038 37.7648L40.8095 31.7171C42.5231 32.1414 48.0301 32.9399 47.14 36.5087H47.1483Z" fill="white"/>
</g>
</g>
</g>
</g>
<defs>
<clipPath id="clip0_28_28670">
<rect width="34.99" height="34.98" fill="white" transform="translate(22.5 22.5)"/>
</clipPath>
<clipPath id="clip1_28_28670">
<rect width="34.99" height="34.98" fill="white" transform="translate(22.5 22.5)"/>
</clipPath>
<clipPath id="clip2_28_28670">
<rect width="26.4284" height="34.98" fill="white" transform="translate(26.7754 22.5)"/>
</clipPath>
</defs>
</svg>
