<svg width="80" height="80" viewBox="0 0 80 80" fill="none" xmlns="http://www.w3.org/2000/svg">
<g clip-path="url(#clip0_28_28665)">
<path fill-rule="evenodd" clip-rule="evenodd" d="M39.8105 80C61.9024 80 79.8104 62.104 79.8104 40.028C79.8664 17.896 61.9024 0 39.8105 0C17.7185 0 -0.189453 17.896 -0.189453 39.972C-0.189453 62.048 17.7185 80 39.8105 80ZM24.3305 22.98L39.3025 37.94V23.768C39.3025 23.656 39.3025 23.488 39.3585 23.372C39.4136 23.2481 39.4894 23.1345 39.5825 23.036C39.6985 22.92 39.8105 22.864 39.9225 22.808C40.0345 22.752 40.2025 22.752 40.3225 22.752H57.2665C57.3825 22.752 57.5505 22.808 57.6665 22.808C57.7906 22.8644 57.9042 22.9415 58.0025 23.036C58.097 23.1342 58.1741 23.2479 58.2304 23.372C58.2773 23.4999 58.2964 23.6362 58.2864 23.772V57.416C58.2864 57.588 58.2864 57.696 58.2304 57.812C58.1745 57.9376 58.0974 58.0526 58.0025 58.152C57.9027 58.2455 57.7877 58.3212 57.6625 58.376C57.5505 58.432 57.3825 58.432 57.2665 58.432C57.0985 58.432 56.9865 58.432 56.8145 58.376C56.7025 58.32 56.5345 58.264 56.4785 58.152L41.5065 43.192V57.416C41.5065 57.532 41.5065 57.696 41.4505 57.812C41.3945 57.928 41.3345 58.036 41.2225 58.152C41.1227 58.2455 41.0077 58.3212 40.8825 58.376C40.7705 58.432 40.6025 58.432 40.4865 58.432H23.5385C23.4265 58.432 23.2585 58.376 23.1425 58.376C23.0187 58.3209 22.9051 58.2451 22.8065 58.152C22.6905 58.036 22.6345 57.924 22.5785 57.812C22.5225 57.7 22.5225 57.532 22.5225 57.416V40.592C22.5225 40.48 22.5225 40.424 22.5785 40.312V23.768C22.5785 23.544 22.6345 23.372 22.7465 23.148C22.8636 22.9583 23.0455 22.8176 23.2585 22.752C23.4567 22.6791 23.6705 22.6598 23.8785 22.696C23.9905 22.752 24.2185 22.868 24.3305 22.98Z" fill="black"/>
</g>
<defs>
<clipPath id="clip0_28_28665">
<rect width="80" height="80" fill="white"/>
</clipPath>
</defs>
</svg>
