<svg width="80" height="80" viewBox="0 0 80 80" fill="none" xmlns="http://www.w3.org/2000/svg">
<rect width="79.1011" height="80" rx="18" fill="#202020"/>
<path fill-rule="evenodd" clip-rule="evenodd" d="M37.6797 21.5H42.9997V26.82H48.3197V21.5H53.6397V30.18H48.3197V33.54H56.9997V35.5H48.3197H38.5197H37.6797H32.3597V33.54V30.18H37.6797V28.5V26.82V21.5ZM32.3597 30.18H27.0397V21.5H32.3597V30.18ZM32.3597 40.82V36.9H21.7197V44.18H28.9997V49.5H21.7197V56.5H28.9997V49.5H36.2797V56.5H42.9997V49.5H56.9997V40.82H48.3197V39.14H44.9597V40.82H32.3597ZM56.9997 51.46H49.7197V56.5H56.9997V51.46Z" fill="white"/>
</svg>
