<svg width="431" height="410" viewBox="0 0 431 410" fill="none" xmlns="http://www.w3.org/2000/svg">
<path d="M415 402C415 406.418 418.582 410 423 410C427.418 410 431 406.418 431 402C431 397.582 427.418 394 423 394C418.582 394 415 397.582 415 402ZM0.5 0V80.3812H3.5V0H0.5ZM102 181.881H323V178.881H102V181.881ZM421.5 280.381V402H424.5V280.381H421.5ZM323 181.881C377.4 181.881 421.5 225.981 421.5 280.381H424.5C424.5 224.324 379.057 178.881 323 178.881V181.881ZM0.5 80.3812C0.5 136.438 45.9431 181.881 102 181.881V178.881C47.6 178.881 3.5 134.781 3.5 80.3812H0.5Z" fill="#111111"/>
</svg>
