<svg xmlns="http://www.w3.org/2000/svg" width="196" height="100" viewBox="0 0 196 100" fill="none">
  <path d="M184.667 93.998C184.667 96.9436 187.054 99.3314 190 99.3314C192.946 99.3314 195.333 96.9436 195.333 93.998C195.333 91.0525 192.946 88.6647 190 88.6647C187.054 88.6647 184.667 91.0525 184.667 93.998ZM0 -0.00195312V22.1767H2V-0.00195312H0ZM21 43.1767H170V41.1767H21V43.1767ZM189 62.1767V93.998H191V62.1767H189ZM170 43.1767C180.493 43.1767 189 51.6833 189 62.1767H191C191 50.5787 181.598 41.1767 170 41.1767V43.1767ZM0 22.1767C0 33.7747 9.40202 43.1767 21 43.1767V41.1767C10.5066 41.1767 2 32.6701 2 22.1767H0Z" fill="#111111"/>
</svg>