<svg width="80" height="80" viewBox="0 0 80 80" fill="none" xmlns="http://www.w3.org/2000/svg">
<rect width="80" height="80" rx="40" fill="black"/>
<path fill-rule="evenodd" clip-rule="evenodd" d="M21.5004 35.8052H53.4376C53.8373 35.8052 54.2036 35.975 54.5033 36.2807L59.5653 41.5794C60.4978 42.5644 59.8317 44.2288 58.4996 44.2288H26.5624C26.1627 44.2288 25.7964 44.0589 25.4967 43.7532L20.4347 38.4545C19.5022 37.4695 20.1683 35.8052 21.5004 35.8052ZM20.4347 28.7742L25.4967 23.4755C25.7631 23.1698 26.1627 23 26.5624 23H58.4663C59.7984 23 60.4645 24.6643 59.532 25.6494L54.5033 30.9481C54.2369 31.2537 53.8373 31.4236 53.4376 31.4236H21.5004C20.1683 31.4236 19.5022 29.7592 20.4347 28.7742ZM59.532 51.2258L54.47 56.5245C54.1703 56.8302 53.804 57 53.4043 57H21.5004C20.1683 57 19.5022 55.3357 20.4347 54.3506L25.4967 49.0519C25.7631 48.7463 26.1627 48.5764 26.5624 48.5764H58.4663C59.7984 48.5764 60.4645 50.2408 59.532 51.2258Z" fill="white"/>
</svg>
