<svg width="80" height="81" viewBox="0 0 80 81" fill="none" xmlns="http://www.w3.org/2000/svg">
<rect x="1" y="1.97998" width="77.98" height="77.98" rx="38.99" fill="black"/>
<rect x="1" y="1.97998" width="77.98" height="77.98" rx="38.99" stroke="black" stroke-width="2"/>
<g clip-path="url(#clip0_28_28646)">
<g clip-path="url(#clip1_28_28646)">
<g clip-path="url(#clip2_28_28646)">
<path d="M39.99 58.46C49.6494 58.46 57.48 50.6294 57.48 40.97C57.48 31.3105 49.6494 23.48 39.99 23.48C30.3305 23.48 22.5 31.3105 22.5 40.97C22.5 50.6294 30.3305 58.46 39.99 58.46Z" fill="white"/>
<path d="M44.5306 44.836V47.1982H34.7861C34.9205 45.6435 35.4221 44.5497 37.157 43.0116L44.5306 36.721V42.2411H47.185V32.0854H32.0918V37.1477H34.7461V34.7398H42.7647L35.427 41.0021L35.4095 41.0186C32.3343 43.7412 32.0898 45.9387 32.0898 48.5278V49.8545H47.1859V44.838H44.5316L44.5306 44.836Z" fill="white"/>
</g>
</g>
</g>
<defs>
<clipPath id="clip0_28_28646">
<rect width="34.99" height="34.98" fill="white" transform="translate(22.5 23.48)"/>
</clipPath>
<clipPath id="clip1_28_28646">
<rect width="34.99" height="34.98" fill="white" transform="translate(22.5 23.48)"/>
</clipPath>
<clipPath id="clip2_28_28646">
<rect width="34.98" height="34.98" fill="white" transform="translate(22.5 23.48)"/>
</clipPath>
</defs>
</svg>
